[Header]
FileType HTR
DataType HTRS
FileVersion 1
NumSegments 64
NumFrames 4
DataFrameRate 30
EulerRotationOrder ZYX
CalibrationUnits mm
RotationUnits Degrees
GlobalAxisofGravity Y
BoneLengthAxis Y
ScaleFactor 1.0
[SegmentNames&Hierarchy]
Hips	GLOBAL
Spine	Hips
Spine1	Spine
Spine2	Spine1
Neck	Spine2
Head	Neck
LeftEye	Head
RightEye	Head
LeftShoulder	Spine2
LeftArm	LeftShoulder
LeftForeArm	LeftArm
LeftHand	LeftForeArm
LeftHandThumb1	LeftHand
LeftHandThumb2	LeftHandThumb1
LeftHandThumb3	LeftHandThumb2
LeftHandThumb4	LeftHandThumb3
LeftHandIndex1	LeftHand
LeftHandIndex2	LeftHandIndex1
LeftHandIndex3	LeftHandIndex2
LeftHandIndex4	LeftHandIndex3
LeftHandMiddle1	LeftHand
LeftHandMiddle2	LeftHandMiddle1
LeftHandMiddle3	LeftHandMiddle2
LeftHandMiddle4	LeftHandMiddle3
LeftHandRing1	LeftHand
LeftHandRing2	LeftHandRing1
LeftHandRing3	LeftHandRing2
LeftHandRing4	LeftHandRing3
LeftHandPinky1	LeftHand
LeftHandPinky2	LeftHandPinky1
LeftHandPinky3	LeftHandPinky2
LeftHandPinky4	LeftHandPinky3
RightShoulder	Spine2
RightArm	RightShoulder
RightForeArm	RightArm
RightHand	RightForeArm
RightHandPinky1	RightHand
RightHandPinky2	RightHandPinky1
RightHandPinky3	RightHandPinky2
RightHandPinky4	RightHandPinky3
RightHandRing1	RightHand
RightHandRing2	RightHandRing1
RightHandRing3	RightHandRing2
RightHandRing4	RightHandRing3
RightHandMiddle1	RightHand
RightHandMiddle2	RightHandMiddle1
RightHandMiddle3	RightHandMiddle2
RightHandMiddle4	RightHandMiddle3
RightHandIndex1	RightHand
RightHandIndex2	RightHandIndex1
RightHandIndex3	RightHandIndex2
RightHandIndex4	RightHandIndex3
RightHandThumb1	RightHand
RightHandThumb2	RightHandThumb1
RightHandThumb3	RightHandThumb2
RightHandThumb4	RightHandThumb3
LeftUpLeg	Hips
LeftLeg	LeftUpLeg
LeftFoot	LeftLeg
LeftToeBase	LeftFoot
RightUpLeg	Hips
RightLeg	RightUpLeg
RightFoot	RightLeg
RightToeBase	RightFoot
[BasePosition]
Hips	0	0	0	0	0	0	1
Spine	0	0	0	0	0	0	1
Spine1	0	0	0	0	0	0	1
Spine2	0	0	0	0	0	0	1
Neck	0	0	0	0	0	0	1
Head	0	0	0	0	0	0	1
LeftEye	0	0	0	0	0	0	1
RightEye	0	0	0	0	0	0	1
LeftShoulder	0	0	0	0	0	0	1
LeftArm	0	0	0	0	0	0	1
LeftForeArm	0	0	0	0	0	0	1
LeftHand	0	0	0	0	0	0	1
LeftHandThumb1	0	0	0	0	0	0	1
LeftHandThumb2	0	0	0	0	0	0	1
LeftHandThumb3	0	0	0	0	0	0	1
LeftHandThumb4	0	0	0	0	0	0	1
LeftHandIndex1	0	0	0	0	0	0	1
LeftHandIndex2	0	0	0	0	0	0	1
LeftHandIndex3	0	0	0	0	0	0	1
LeftHandIndex4	0	0	0	0	0	0	1
LeftHandMiddle1	0	0	0	0	0	0	1
LeftHandMiddle2	0	0	0	0	0	0	1
LeftHandMiddle3	0	0	0	0	0	0	1
LeftHandMiddle4	0	0	0	0	0	0	1
LeftHandRing1	0	0	0	0	0	0	1
LeftHandRing2	0	0	0	0	0	0	1
LeftHandRing3	0	0	0	0	0	0	1
LeftHandRing4	0	0	0	0	0	0	1
LeftHandPinky1	0	0	0	0	0	0	1
LeftHandPinky2	0	0	0	0	0	0	1
LeftHandPinky3	0	0	0	0	0	0	1
LeftHandPinky4	0	0	0	0	0	0	1
RightShoulder	0	0	0	0	0	0	1
RightArm	0	0	0	0	0	0	1
RightForeArm	0	0	0	0	0	0	1
RightHand	0	0	0	0	0	0	1
RightHandPinky1	0	0	0	0	0	0	1
RightHandPinky2	0	0	0	0	0	0	1
RightHandPinky3	0	0	0	0	0	0	1
RightHandPinky4	0	0	0	0	0	0	1
RightHandRing1	0	0	0	0	0	0	1
RightHandRing2	0	0	0	0	0	0	1
RightHandRing3	0	0	0	0	0	0	1
RightHandRing4	0	0	0	0	0	0	1
RightHandMiddle1	0	0	0	0	0	0	1
RightHandMiddle2	0	0	0	0	0	0	1
RightHandMiddle3	0	0	0	0	0	0	1
RightHandMiddle4	0	0	0	0	0	0	1
RightHandIndex1	0	0	0	0	0	0	1
RightHandIndex2	0	0	0	0	0	0	1
RightHandIndex3	0	0	0	0	0	0	1
RightHandIndex4	0	0	0	0	0	0	1
RightHandThumb1	0	0	0	0	0	0	1
RightHandThumb2	0	0	0	0	0	0	1
RightHandThumb3	0	0	0	0	0	0	1
RightHandThumb4	0	0	0	0	0	0	1
LeftUpLeg	0	0	0	0	0	0	1
LeftLeg	0	0	0	0	0	0	1
LeftFoot	0	0	0	0	0	0	1
LeftToeBase	0	0	0	0	0	0	1
RightUpLeg	0	0	0	0	0	0	1
RightLeg	0	0	0	0	0	0	1
RightFoot	0	0	0	0	0	0	1
RightToeBase	0	0	0	0	0	0	1
[Hips]
348	-106.8422623	1005.477051	12.41427517	4.083567142	-0.5344551802	-1.904340506	1.0
349	-91.67839813	1008.41394	16.5035305	3.921285629	-0.5721638799	-3.650309801	1.0
350	-77.44637299	1007.787476	20.06745148	3.483403921	-1.166310072	-5.195808411	1.0
351	-64.11305237	1006.592773	22.70497894	2.709529638	-2.557759047	-6.322696209	1.0
[Spine]
348	0	101.8159943	1.315000057	3.799647093	-0.3715191483	6.8426404	1.0
349	0	101.8159943	1.315000057	2.972859144	-0.4004317224	8.306790352	1.0
350	0	101.8159943	1.315000057	2.450344086	-0.2955630422	9.192336082	1.0
351	0	101.8159943	1.315000057	2.369658947	-0.1192806289	9.335606575	1.0
[Spine1]
348	0	100.8349991	-10.00800037	2.627572536	0.05826527253	2.149177551	1.0
349	0	100.8349991	-10.00800037	2.464941978	0.01842271909	2.139374733	1.0
350	0	100.8349991	-10.00800037	2.406497717	-0.005106108263	2.024106264	1.0
351	0	100.8349991	-10.00800037	2.468017101	-0.01512991451	1.802478552	1.0
[Spine2]
348	0	91	-13.73399925	2.605854034	0.1214711219	2.150465727	1.0
349	0	91	-13.73399925	2.444163799	0.06686183065	2.140736818	1.0
350	0	91	-13.73399925	2.386435747	0.02969016321	2.026615381	1.0
351	0	91	-13.73399925	2.448551893	0.00789215602	1.807085037	1.0
[Neck]
348	0	166.7169952	-25.16200066	-5.736760139	2.856109619	0.3193587661	1.0
349	0	166.7169952	-25.16200066	-6.119569302	1.229053974	-0.006349192467	1.0
350	0	166.7169952	-25.16200066	-6.093437672	0.2609863281	0.9207751751	1.0
351	0	166.7169952	-25.16200066	-5.69283247	-0.07960253954	2.864107609	1.0
[Head]
348	0	96.17900085	16.84999847	-9.133087158	3.853507757	-4.852022171	1.0
349	0	96.17900085	16.84999847	-6.663714886	2.055513144	-4.972864151	1.0
350	0	96.17900085	16.84999847	-4.998021603	1.554595113	-5.3376441	1.0
351	0	96.17900085	16.84999847	-4.235187531	2.317039251	-5.87033844	1.0
[LeftEye]
348	30.6760006	64.09500122	92.83599854	0	0	0	1.0
349	30.6760006	64.09500122	92.83599854	0	0	0	1.0
350	30.6760006	64.09500122	92.83599854	0	0	0	1.0
351	30.6760006	64.09500122	92.83599854	0	0	0	1.0
[RightEye]
348	-30.6760006	64.09500122	92.83499908	0	0	0	1.0
349	-30.6760006	64.09500122	92.83499908	0	0	0	1.0
350	-30.6760006	64.09500122	92.83499908	0	0	0	1.0
351	-30.6760006	64.09500122	92.83499908	0	0	0	1.0
[LeftShoulder]
348	45.70400238	109.4599991	-26.28000069	3.845619202	-8.777524948	-2.629525423	1.0
349	45.70400238	109.4599991	-26.28000069	3.809938669	-9.155846596	-2.20112133	1.0
350	45.70400238	109.4599991	-26.28000069	3.760760307	-9.835737228	-1.711185575	1.0
351	45.70400238	109.4599991	-26.28000069	3.722156286	-10.67105007	-1.470571876	1.0
[LeftArm]
348	105.923996	-5.24600029	-22.32099915	30.525877	30.85713768	-61.63868713	1.0
349	105.923996	-5.24600029	-22.32099915	27.82153893	31.57634163	-65.75589752	1.0
350	105.923996	-5.24600029	-22.32099915	24.50285721	31.40094185	-69.04324341	1.0
351	105.923996	-5.24600029	-22.32099915	21.82536125	29.65337944	-70.7472229	1.0
[LeftForeArm]
348	278.414978	-0.0009999999311	0	-2.903603308e-05	-77.45651245	-0.0001729123032	1.0
349	278.414978	-0.0009999999311	0	-2.950382168e-06	-69.40670776	-0.0001979140652	1.0
350	278.414978	-0.0009999999311	0	3.316630909e-06	-59.942173	-0.0002041090484	1.0
351	278.414978	-0.0009999999311	0	4.382833595e-06	-50.34573746	-0.000213604726	1.0
[LeftHand]
348	283.2879944	0	0	29.28783607	-45.23118973	-27.13691521	1.0
349	283.2879944	0	0	5.162787437	-40.22247696	-8.90053463	1.0
350	283.2879944	0	0	-18.92284775	-24.13250732	5.937900543	1.0
351	283.2879944	0	0	-37.07382202	-3.849613428	13.44149208	1.0
[LeftHandThumb1]
348	24.6609993	-15.75	26.8239994	-1.44065702	-8.314463615	8.65196991	1.0
349	24.6609993	-15.75	26.8239994	-1.44278419	-8.327118874	8.657249451	1.0
350	24.6609993	-15.75	26.8239994	-1.443554163	-8.331738472	8.65915966	1.0
351	24.6609993	-15.75	26.8239994	-1.432629585	-8.266552925	8.632011414	1.0
[LeftHandThumb2]
348	32.29800034	-18.64699936	18.64699936	-0.9735746384	48.03056717	-30.06664658	1.0
349	32.29800034	-18.64699936	18.64699936	-1.039557815	48.04528427	-30.15938568	1.0
350	32.29800034	-18.64699936	18.64699936	-1.063036442	48.05125427	-30.19282532	1.0
351	32.29800034	-18.64699936	18.64699936	-0.7246124744	47.97410202	-29.71618462	1.0
[LeftHandThumb3]
348	26.52600098	-15.31499958	15.31499958	7.50460577	50.0046463	24.37108803	1.0
349	26.52600098	-15.31499958	15.31499958	7.550953388	50.05585098	24.414505	1.0
350	26.52600098	-15.31499958	15.31499958	7.568113804	50.07432175	24.43049812	1.0
351	26.52600098	-15.31499958	15.31499958	7.331972122	49.810009	24.20965004	1.0
[LeftHandThumb4]
348	19.54599953	-11.28499985	11.28499985	0	0	0	1.0
349	19.54599953	-11.28499985	11.28499985	0	0	0	1.0
350	19.54599953	-11.28499985	11.28499985	0	0	0	1.0
351	19.54599953	-11.28499985	11.28499985	0	0	0	1.0
[LeftHandIndex1]
348	91.09299469	-5.170999527	22.60099792	-1.705498815	9.269556046	-79.09105682	1.0
349	91.09299469	-5.170999527	22.60099792	-1.709240675	9.276506424	-79.18125153	1.0
350	91.09299469	-5.170999527	22.60099792	-1.710636854	9.279146194	-79.21414185	1.0
351	91.09299469	-5.170999527	22.60099792	-1.691290498	9.24307251	-78.74971008	1.0
[LeftHandIndex2]
348	36.76399994	0	0	-5.081124306	5.777648449	-82.64874268	1.0
349	36.76399994	0	0	-5.089327812	5.778694153	-82.73020172	1.0
350	36.76399994	0	0	-5.092302322	5.779155731	-82.75991058	1.0
351	36.76399994	0	0	-5.050109386	5.773590565	-82.34050751	1.0
[LeftHandIndex3]
348	28.83100128	0	0	-6.445470333	5.792205334	-96.1227951	1.0
349	28.83100128	0	0	-6.456562996	5.791014671	-96.23270416	1.0
350	28.83100128	0	0	-6.460613251	5.790719032	-96.27280426	1.0
351	28.83100128	0	0	-6.4034729	5.796537399	-95.70685577	1.0
[LeftHandIndex4]
348	23.92700005	0	0	0	0	0	1.0
349	23.92700005	0	0	0	0	0	1.0
350	23.92700005	0	0	0	0	0	1.0
351	23.92700005	0	0	0	0	0	1.0
[LeftHandMiddle1]
348	95.33399963	0	0	-6.491701603	5.273442268	-74.27626038	1.0
349	95.33399963	0	0	-6.499725342	5.272958755	-74.34922028	1.0
350	95.33399963	0	0	-6.50266552	5.272848606	-74.37584686	1.0
351	95.33399963	0	0	-6.461368561	5.275177956	-74.00016022	1.0
[LeftHandMiddle2]
348	36.98199844	0	0	-7.579359055	5.555677891	-107.5540085	1.0
349	36.98199844	0	0	-7.590226173	5.552252769	-107.6662903	1.0
350	36.98199844	0	0	-7.594235897	5.551142693	-107.7072754	1.0
351	36.98199844	0	0	-7.53818655	5.568487167	-107.1291275	1.0
[LeftHandMiddle3]
348	29.50900078	0	0	-4.041622162	5.546339512	-72.14177704	1.0
349	29.50900078	0	0	-4.048101425	5.548410416	-72.20881653	1.0
350	29.50900078	0	0	-4.050442219	5.54921627	-72.23324585	1.0
351	29.50900078	0	0	-4.017121792	5.538418293	-71.88806152	1.0
[LeftHandMiddle4]
348	28.3390007	0	0	0	0	0	1.0
349	28.3390007	0	0	0	0	0	1.0
350	28.3390007	0	0	0	0	0	1.0
351	28.3390007	0	0	0	0	0	1.0
[LeftHandRing1]
348	91.04499817	-0.4390000105	-18.65100098	-7.090596676	2.509896517	-79.73917389	1.0
349	91.04499817	-0.4390000105	-18.65100098	-7.098472595	2.504781723	-79.81166077	1.0
350	91.04499817	-0.4390000105	-18.65100098	-7.101360321	2.502984047	-79.83811188	1.0
351	91.04499817	-0.4390000105	-18.65100098	-7.06080389	2.529128551	-79.46485138	1.0
[LeftHandRing2]
348	31.54000092	0	0	-6.245643616	5.810070515	-94.14605713	1.0
349	31.54000092	0	0	-6.254892826	5.809405804	-94.23735046	1.0
350	31.54000092	0	0	-6.258276463	5.809263706	-94.2706604	1.0
351	31.54000092	0	0	-6.21065712	5.81248951	-93.8004837	1.0
[LeftHandRing3]
348	29.37700081	0	0	-2.896882057	5.037860394	-59.77824783	1.0
349	29.37700081	0	0	-2.901468754	5.040521145	-59.83052063	1.0
350	29.37700081	0	0	-2.90311861	5.041523457	-59.84958649	1.0
351	29.37700081	0	0	-2.879526854	5.027755737	-59.58047104	1.0
[LeftHandRing4]
348	26.47500038	0	0	0	0	0	1.0
349	26.47500038	0	0	0	0	0	1.0
350	26.47500038	0	0	0	0	0	1.0
351	26.47500038	0	0	0	0	0	1.0
[LeftHandPinky1]
348	80.77799988	-4.887000084	-38.06099701	-15.73613358	5.237858772	-84.9358902	1.0
349	80.77799988	-4.887000084	-38.06099701	-15.75372505	5.233838558	-85.00751495	1.0
350	80.77799988	-4.887000084	-38.06099701	-15.76016045	5.23242569	-85.03364563	1.0
351	80.77799988	-4.887000084	-38.06099701	-15.66962337	5.252964973	-84.66479492	1.0
[LeftHandPinky2]
348	36	0	0	-2.464050055	4.760420322	-54.71354294	1.0
349	36	0	0	-2.467916965	4.7631464	-54.76004791	1.0
350	36	0	0	-2.469319344	4.764167309	-54.7770195	1.0
351	36	0	0	-2.449471235	4.750115395	-54.53757477	1.0
[LeftHandPinky3]
348	21.14200211	0	0	-4.926587105	5.755714417	-81.11074829	1.0
349	21.14200211	0	0	-4.934673786	5.756975174	-81.19136047	1.0
350	21.14200211	0	0	-4.937609673	5.757506371	-81.22077942	1.0
351	21.14200211	0	0	-4.895998955	5.75087595	-80.80561829	1.0
[LeftHandPinky4]
348	19.75699997	0	0	0	0	0	1.0
349	19.75699997	0	0	0	0	0	1.0
350	19.75699997	0	0	0	0	0	1.0
351	19.75699997	0	0	0	0	0	1.0
[RightShoulder]
348	-45.70000076	109.4620056	-26.28000069	2.978946686	5.606266975	4.211940765	1.0
349	-45.70000076	109.4620056	-26.28000069	3.296741486	5.849721909	7.270414352	1.0
350	-45.70000076	109.4620056	-26.28000069	3.680948734	6.382134438	10.46621799	1.0
351	-45.70000076	109.4620056	-26.28000069	4.143655777	7.43227911	13.55044746	1.0
[RightArm]
348	-105.9280014	-5.248000145	-22.32099915	55.34877396	-13.40533161	44.80873489	1.0
349	-105.9280014	-5.248000145	-22.32099915	48.96870041	-8.768429756	44.59109497	1.0
350	-105.9280014	-5.248000145	-22.32099915	41.60713959	-3.055394888	44.46071625	1.0
351	-105.9280014	-5.248000145	-22.32099915	34.30256271	3.010473967	44.61634445	1.0
[RightForeArm]
348	-278.414978	0	0	1.40903494e-05	65.84307098	1.304805392e-05	1.0
349	-278.414978	0	0	3.976558673e-07	51.46009445	-3.357296237e-06	1.0
350	-278.414978	0	0	6.566830507e-06	35.46485138	-6.354671314e-06	1.0
351	-278.414978	0	0	4.400013495e-06	21.73301125	6.230289273e-06	1.0
[RightHand]
348	-283.2879944	0	0.0009999999311	8.228916168	16.97305679	13.3561306	1.0
349	-283.2879944	0	0.0009999999311	4.108980656	10.82823563	16.81564331	1.0
350	-283.2879944	0	0.0009999999311	0.2210547626	7.271775723	16.67617607	1.0
351	-283.2879944	0	0.0009999999311	-4.002834797	6.980116844	11.73810101	1.0
[RightHandPinky1]
348	-80.76699829	-4.885000229	-38.06000137	-14.50888348	-4.050246716	84.18444824	1.0
349	-80.76699829	-4.885000229	-38.06000137	-14.50865841	-4.050305367	84.18345642	1.0
350	-80.76699829	-4.885000229	-38.06000137	-14.53033257	-4.045248508	84.26190948	1.0
351	-80.76699829	-4.885000229	-38.06000137	-14.55135155	-4.04032135	84.33856964	1.0
[RightHandPinky2]
348	-36	0	0.0009999999311	-1.960476995	-3.784565687	54.77713776	1.0
349	-36	0	0.0009999999311	-1.960429788	-3.784540415	54.77649307	1.0
350	-36	0	0.0009999999311	-1.961385489	-3.785212755	54.7910347	1.0
351	-36	0	0.0009999999311	-1.962400436	-3.78593111	54.80643463	1.0
[RightHandPinky3]
348	-21.14200211	0	0	-3.917592287	-4.575423717	81.13395691	1.0
349	-21.14200211	0	0	-3.917498112	-4.575418472	81.13282776	1.0
350	-21.14200211	0	0	-3.922533989	-4.576206684	81.19589233	1.0
351	-21.14200211	0	0	-3.927527428	-4.576950073	81.25836945	1.0
[RightHandPinky4]
348	-19.75699997	0	0	0	0	0	1.0
349	-19.75699997	0	0	0	0	0	1.0
350	-19.75699997	0	0	0	0	0	1.0
351	-19.75699997	0	0	0	0	0	1.0
[RightHandRing1]
348	-91.03599548	-0.4390000105	-18.65100098	-5.97317791	-1.323286295	78.99216461	1.0
349	-91.03599548	-0.4390000105	-18.65100098	-5.973095894	-1.3233639	78.99117279	1.0
350	-91.03599548	-0.4390000105	-18.65100098	-5.980140209	-1.316058636	79.07113647	1.0
351	-91.03599548	-0.4390000105	-18.65100098	-5.986997128	-1.308944464	79.14924622	1.0
[RightHandRing2]
348	-31.54000092	0	0	-4.964538097	-4.618478775	94.14109039	1.0
349	-31.54000092	0	0	-4.964434147	-4.618490696	94.13983154	1.0
350	-31.54000092	0	0	-4.971112728	-4.61801672	94.22285461	1.0
351	-31.54000092	0	0	-4.977690697	-4.617518425	94.30453491	1.0
[RightHandRing3]
348	-29.37700081	0	0	-2.305833817	-4.005802155	59.83811951	1.0
349	-29.37700081	0	0	-2.305783272	-4.005770206	59.8373909	1.0
350	-29.37700081	0	0	-2.30715847	-4.006556988	59.85712814	1.0
351	-29.37700081	0	0	-2.308600903	-4.007388592	59.87768173	1.0
[RightHandRing4]
348	-26.47500038	0	0	0	0	0	1.0
349	-26.47500038	0	0	0	0	0	1.0
350	-26.47500038	0	0	0	0	0	1.0
351	-26.47500038	0	0	0	0	0	1.0
[RightHandMiddle1]
348	-95.32500458	0	0	-5.48743391	-4.098771572	73.54219818	1.0
349	-95.32500458	0	0	-5.487350941	-4.098786354	73.54120636	1.0
350	-95.32500458	0	0	-5.494560719	-4.09805727	73.62165833	1.0
351	-95.32500458	0	0	-5.501577854	-4.09732008	73.70029449	1.0
[RightHandMiddle2]
348	-36.98199844	0	0	-6.023193359	-4.416556358	107.5211716	1.0
349	-36.98199844	0	0	-6.023073673	-4.416599751	107.5196304	1.0
350	-36.98199844	0	0	-6.031941414	-4.413811207	107.6348419	1.0
351	-36.98199844	0	0	-6.04061842	-4.41103363	107.7477036	1.0
[RightHandMiddle3]
348	-29.50900078	0	0	-3.215081215	-4.41135788	72.18307495	1.0
349	-29.50900078	0	0	-3.215005636	-4.411340237	72.18215942	1.0
350	-29.50900078	0	0	-3.218264341	-4.412369251	72.22445679	1.0
351	-29.50900078	0	0	-3.221525431	-4.413394928	72.26678467	1.0
[RightHandMiddle4]
348	-28.3390007	0	0.0009999999311	0	0	0	1.0
349	-28.3390007	0	0.0009999999311	0	0	0	1.0
350	-28.3390007	0	0.0009999999311	0	0	0	1.0
351	-28.3390007	0	0.0009999999311	0	0	0	1.0
[RightHandIndex1]
348	-91.08300018	-5.167999744	22.60099792	-0.6025176048	-8.081560135	78.35182953	1.0
349	-91.08300018	-5.167999744	22.60099792	-0.6024959683	-8.081473351	78.35059357	1.0
350	-91.08300018	-5.167999744	22.60099792	-0.604750216	-8.092184067	78.45703125	1.0
351	-91.08300018	-5.167999744	22.60099792	-0.6069254875	-8.10248661	78.56079865	1.0
[RightHandIndex2]
348	-36.76399994	0	0	-4.040169239	-4.592823982	82.66757965	1.0
349	-36.76399994	0	0	-4.040081978	-4.592810154	82.66645813	1.0
350	-36.76399994	0	0	-4.045518398	-4.59349966	82.73432922	1.0
351	-36.76399994	0	0	-4.050888062	-4.594167233	82.8013916	1.0
[RightHandIndex3]
348	-28.83100128	0	0	-5.122988224	-4.604309082	96.11167145	1.0
349	-28.83100128	0	0	-5.122872829	-4.604324341	96.11017609	1.0
350	-28.83100128	0	0	-5.131529331	-4.603415012	96.21810913	1.0
351	-28.83100128	0	0	-5.140023232	-4.602459431	96.3239975	1.0
[RightHandIndex4]
348	-23.92700005	0	0	0	0	0	1.0
349	-23.92700005	0	0	0	0	0	1.0
350	-23.92700005	0	0	0	0	0	1.0
351	-23.92700005	0	0	0	0	0	1.0
[RightHandThumb1]
348	-24.64799881	-15.72700024	26.82600021	-2.386903524	10.15966702	-8.28305912	1.0
349	-24.64799881	-15.72700024	26.82600021	-2.386903048	10.1596508	-8.283062935	1.0
350	-24.64799881	-15.72700024	26.82600021	-2.390404701	10.18291759	-8.293390274	1.0
351	-24.64799881	-15.72700024	26.82600021	-2.393728256	10.20497417	-8.303168297	1.0
[RightHandThumb2]
348	-32.29800034	-18.64699936	18.64699936	-2.011754751	-49.3923912	30.15711212	1.0
349	-32.29800034	-18.64699936	18.64699936	-2.011690855	-49.39238739	30.15701294	1.0
350	-32.29800034	-18.64699936	18.64699936	-2.135540724	-49.41197205	30.32891083	1.0
351	-32.29800034	-18.64699936	18.64699936	-2.253450394	-49.42981339	30.49217224	1.0
[RightHandThumb3]
348	-26.52600098	-15.31399918	15.31399918	13.45243645	-55.11000061	-27.68694115	1.0
349	-26.52600098	-15.31399918	15.31399918	13.452425	-55.10991669	-27.68692398	1.0
350	-26.52600098	-15.31399918	15.31399918	13.57034397	-55.21198654	-27.78709412	1.0
351	-26.52600098	-15.31399918	15.31399918	13.68486977	-55.30792999	-27.88469887	1.0
[RightHandThumb4]
348	-19.54599953	-11.28499985	11.28499985	0	0	0	1.0
349	-19.54599953	-11.28499985	11.28499985	0	0	0	1.0
350	-19.54599953	-11.28499985	11.28499985	0	0	0	1.0
351	-19.54599953	-11.28499985	11.28499985	0	0	0	1.0
[LeftUpLeg]
348	82.07800293	-67.51699829	-15.99599934	-33.21844101	19.08755493	25.88033676	1.0
349	82.07800293	-67.51699829	-15.99599934	-31.384161	19.69428635	21.98975372	1.0
350	82.07800293	-67.51699829	-15.99599934	-28.76304436	19.58159065	18.65954208	1.0
351	82.07800293	-67.51699829	-15.99599934	-25.04066467	18.66317558	16.17245865	1.0
[LeftLeg]
348	0	-443.7049866	2.845999956	46.66327667	-5.283802986	-5.661444187	1.0
349	0	-443.7049866	2.845999956	42.11076736	-6.215949059	-5.331790924	1.0
350	0	-443.7049866	2.845999956	37.46664429	-5.311786652	-3.244618893	1.0
351	0	-443.7049866	2.845999956	32.5671463	-1.517342567	0.8760985136	1.0
[LeftFoot]
348	0	-444.2789917	-29.8219986	7.909792423	-15.38066483	-28.48880959	1.0
349	0	-444.2789917	-29.8219986	3.72446537	-14.75791645	-27.89992905	1.0
350	0	-444.2789917	-29.8219986	-1.443549871	-12.085392	-23.06768417	1.0
351	0	-444.2789917	-29.8219986	-4.582934856	-8.145670891	-15.56592751	1.0
[LeftToeBase]
348	0	-87.28699493	107.1060028	-2.322519064	1.88436718e-06	1.726227538e-06	1.0
349	0	-87.28699493	107.1060028	-1.569751024	6.92510298e-07	6.968342404e-06	1.0
350	0	-87.28699493	107.1060028	-1.539881587	-3.880732947e-06	3.872828529e-06	1.0
351	0	-87.28699493	107.1060028	-3.000338793	2.325574968e-07	-2.865286433e-06	1.0
[RightUpLeg]
348	-82.07800293	-67.51699829	-15.99599934	-7.770218372	0.6845369339	-9.294854164	1.0
349	-82.07800293	-67.51699829	-15.99599934	-4.179051876	-1.146468759	-8.533049583	1.0
350	-82.07800293	-67.51699829	-15.99599934	-2.683847189	-2.268818617	-7.95255518	1.0
351	-82.07800293	-67.51699829	-15.99599934	-3.099272966	-2.711577177	-7.819629669	1.0
[RightLeg]
348	0	-443.7049866	2.861999989	15.4168148	9.511971474	2.253320932	1.0
349	0	-443.7049866	2.861999989	8.760156631	9.947077751	1.405731201	1.0
350	0	-443.7049866	2.861999989	6.598635674	10.13748646	1.367564201	1.0
351	0	-443.7049866	2.861999989	8.688380241	9.879554749	2.070171356	1.0
[RightFoot]
348	0	-444.2770081	-29.83799934	-13.48434544	2.980488777	9.855092049	1.0
349	0	-444.2770081	-29.83799934	-9.436693192	4.704654694	10.83712673	1.0
350	0	-444.2770081	-29.83799934	-6.726592064	6.184638977	10.04460526	1.0
351	0	-444.2770081	-29.83799934	-6.410385609	7.837759495	8.275748253	1.0
[RightToeBase]
348	0	-87.28699493	107.1060028	1.259985805	0.01876244694	-0.7611007094	1.0
349	0	-87.28699493	107.1060028	0.1332763433	0.01899906434	-0.486644268	1.0
350	0	-87.28699493	107.1060028	-2.273944616	0.002818824723	0.3981423676	1.0
351	0	-87.28699493	107.1060028	-4.960548878	2.020316742e-06	4.83256963e-06	1.0
[EndOfFile]
